<mxfile host="app.diagrams.net" modified="2023-09-22T06:43:27.708Z" agent="Mozilla/5.0 (Macintosh; Intel Mac OS X 10_15_7) AppleWebKit/537.36 (KHTML, like Gecko) Chrome/116.0.0.0 Safari/537.36" version="21.8.0" etag="-qPVZAWwQLnWEW2P84Ae" type="github">
  <diagram name="Page-1" id="hltKsIXzAZTencEj6bZ5">
    <mxGraphModel>
      <root>
        <mxCell id="0" />
        <mxCell id="1" parent="0" />
      </root>
    </mxGraphModel>
  </diagram>
</mxfile>
